<svg width="32" height="32" viewBox="0 0 32 32" fill="none" xmlns="http://www.w3.org/2000/svg">
<path fill-rule="evenodd" clip-rule="evenodd" d="M28.6013 12.1043C28.6293 14.1252 27.7296 16.2791 25.707 18.3018C23.6812 20.3275 21.4097 22.3462 19.6507 23.8539C18.7698 24.6089 18.0147 25.2382 17.4793 25.6791C17.2116 25.8996 16.9987 26.0731 16.8523 26.1917C16.7792 26.2511 16.7226 26.2967 16.6842 26.3277L16.6403 26.363L16.625 26.3752C16.625 26.3752 16.6246 26.3755 15.9999 25.5947L16.625 26.3752C16.1937 26.7203 15.564 26.6506 15.219 26.2194C14.874 25.7881 14.9439 25.1588 15.3752 24.8138L15.3884 24.8032L15.4298 24.7699C15.4666 24.7403 15.5214 24.6961 15.5927 24.6382C15.7354 24.5225 15.9444 24.3523 16.2079 24.1352C16.735 23.7011 17.4799 23.0804 18.3491 22.3354C20.0901 20.8431 22.3185 18.8618 24.2928 16.8876C26.0201 15.1602 26.6205 13.5017 26.6015 12.1319C26.5825 10.7557 25.9381 9.53509 24.9164 8.67057C22.8819 6.94908 19.3873 6.67932 16.7591 9.74547C16.3997 10.1648 15.7684 10.2134 15.3491 9.85394C14.9298 9.49452 14.8812 8.86322 15.2406 8.44389C18.6125 4.51003 23.3678 4.74029 26.2083 7.1438C27.6241 8.34178 28.5735 10.0899 28.6013 12.1043Z" fill="#343E49"/>
<path fill-rule="evenodd" clip-rule="evenodd" d="M12.3806 6.58389C12.6105 6.0817 13.2039 5.86091 13.7061 6.09074C14.7967 6.58989 15.8351 7.36589 16.7591 8.44389C17.1186 8.86322 17.07 9.49452 16.6507 9.85394C16.2313 10.2134 15.6 10.1648 15.2406 9.74547C14.4922 8.87231 13.6834 8.27985 12.8738 7.90933C12.3716 7.6795 12.1508 7.08608 12.3806 6.58389ZM4.85208 14.6359C5.32932 14.358 5.94153 14.5195 6.21949 14.9967C6.57579 15.6085 7.06287 16.2435 7.70698 16.8876C9.68125 18.8618 11.9097 20.8431 13.6507 22.3354C14.5198 23.0804 15.2647 23.7011 15.7918 24.1352C16.0553 24.3523 16.2643 24.5225 16.407 24.6382C16.4784 24.6961 16.5332 24.7403 16.5699 24.7699L16.6113 24.8032L16.624 24.8133C17.0552 25.1583 17.1257 25.7881 16.7807 26.2194C16.4357 26.6506 15.8064 26.7206 15.3752 26.3755L15.9999 25.5947C15.3752 26.3755 15.3752 26.3755 15.3752 26.3755L15.3595 26.363L15.3156 26.3277C15.2771 26.2967 15.2206 26.2511 15.1474 26.1917C15.0011 26.0731 14.7882 25.8996 14.5204 25.6791C13.985 25.2382 13.2299 24.6089 12.3491 23.8539C10.5901 22.3462 8.31851 20.3275 6.29277 18.3018C5.54079 17.5498 4.94362 16.78 4.49126 16.0033C4.2133 15.5261 4.37484 14.9139 4.85208 14.6359Z" fill="#343E49"/>
<path d="M7.3999 5.40002C7.3999 4.84774 6.95219 4.40002 6.3999 4.40002C5.84762 4.40002 5.3999 4.84774 5.3999 5.40002V7.40002H3.3999C2.84762 7.40002 2.3999 7.84774 2.3999 8.40002C2.3999 8.95231 2.84762 9.40002 3.3999 9.40002H5.3999V11.4C5.3999 11.9523 5.84762 12.4 6.3999 12.4C6.95219 12.4 7.3999 11.9523 7.3999 11.4V9.40002H9.3999C9.95219 9.40002 10.3999 8.95231 10.3999 8.40002C10.3999 7.84774 9.95219 7.40002 9.3999 7.40002H7.3999V5.40002Z" fill="#343E49"/>
</svg>
